<?xml version="1.0" encoding="utf-8"?>
<!-- Generator: Adobe Illustrator 21.0.2, SVG Export Plug-In . SVG Version: 6.00 Build 0)  -->
<svg version="1.1" id="Layer_1" xmlns="http://www.w3.org/2000/svg" xmlns:xlink="http://www.w3.org/1999/xlink" x="0px" y="0px"
	 viewBox="0 0 500 667" style="enable-background:new 0 0 500 667;" xml:space="preserve">
<style type="text/css">
	.st0{fill:#FFFFFF;}
	.st1{opacity:0.4;fill:#FFFFFF;enable-background:new    ;}
	.st2{fill:none;}
</style>
<g>
	<path class="st0" d="M193.3,328.1"/>
	<g>
		<path class="st0" d="M145.5,189.4v0.2C145.5,189.5,145.5,189.5,145.5,189.4L145.5,189.4z M149.4,168.1L149.4,168.1
			c-0.1,0.3-0.2,0.6-0.2,0.8C149.3,168.7,149.4,168.4,149.4,168.1L149.4,168.1z"/>
	</g>
	<g>
		<path class="st0" d="M342.7,130.2c0.2-0.2,0.3-0.5,0.6-0.7c0,0,0-0.1,0.1-0.1C343.2,129.6,343,129.8,342.7,130.2z"/>
	</g>
	<path class="st0" d="M224.2,110.6c-0.2,0-0.3,0.1-0.6,0.1c-0.1,0-0.1,0-0.2,0c-0.2,0-0.5,0.1-0.7,0.1c0.8-0.1,1.5-0.3,2.3-0.5
		C224.7,110.4,224.4,110.4,224.2,110.6z M227.2,110c-0.3,0.1-0.8,0.1-1.1,0.2C226.4,110.1,226.9,110.1,227.2,110
		c0.7-0.1,1.5-0.2,2.2-0.3C228.6,109.8,227.9,109.9,227.2,110z M229.4,109.8c-0.8,0.1-1.5,0.1-2.2,0.3c-0.3,0.1-0.8,0.1-1.1,0.2
		c0.3-0.1,0.8-0.1,1.1-0.1c0.8-0.1,1.6-0.2,2.4-0.3L229.4,109.8z M224.2,110.6c-0.2,0-0.3,0.1-0.6,0.1c-0.1,0-0.1,0-0.2,0
		c-0.2,0-0.5,0.1-0.7,0.1c0.8-0.1,1.5-0.3,2.3-0.5C224.7,110.4,224.4,110.4,224.2,110.6z M229.4,109.8c-0.8,0.1-1.5,0.1-2.2,0.3
		c-0.3,0.1-0.8,0.1-1.1,0.2s-0.8,0.1-1.1,0.2c-0.2,0-0.6,0.1-0.8,0.1s-0.3,0.1-0.6,0.1c-0.1,0-0.1,0-0.2,0c-0.2,0-0.5,0.1-0.7,0.1
		c1.5-0.3,2.9-0.6,4.4-0.8c0.8-0.1,1.6-0.2,2.4-0.3L229.4,109.8z M229.4,109.8c-0.8,0.1-1.5,0.1-2.2,0.3c-0.3,0.1-0.8,0.1-1.1,0.2
		s-0.8,0.1-1.1,0.2c-0.2,0-0.6,0.1-0.8,0.1s-0.3,0.1-0.6,0.1c-0.1,0-0.1,0-0.2,0c-0.2,0-0.5,0.1-0.7,0.1c1.5-0.3,2.9-0.6,4.4-0.8
		c0.8-0.1,1.6-0.2,2.4-0.3L229.4,109.8z M229.4,109.8c-0.8,0.1-1.5,0.1-2.2,0.3c-0.3,0.1-0.8,0.1-1.1,0.2s-0.8,0.1-1.1,0.2
		c-0.2,0-0.6,0.1-0.8,0.1s-0.3,0.1-0.6,0.1c-0.1,0-0.1,0-0.2,0c-0.2,0-0.5,0.1-0.7,0.1c1.5-0.3,2.9-0.6,4.4-0.8
		c0.8-0.1,1.6-0.2,2.4-0.3L229.4,109.8z M229.4,109.8c-0.8,0.1-1.5,0.1-2.2,0.3c-0.3,0.1-0.8,0.1-1.1,0.2s-0.8,0.1-1.1,0.2
		c-0.2,0-0.6,0.1-0.8,0.1s-0.3,0.1-0.6,0.1c-0.1,0-0.1,0-0.2,0c-0.2,0-0.5,0.1-0.7,0.1c1.5-0.3,2.9-0.6,4.4-0.8
		c0.8-0.1,1.6-0.2,2.4-0.3L229.4,109.8z M151.2,177.7c-0.1,0.2-0.2,0.5-0.2,0.8C151.1,178.2,151.2,178,151.2,177.7L151.2,177.7
		L151.2,177.7z M229.4,109.8c-0.8,0.1-1.5,0.1-2.2,0.3c-0.3,0.1-0.8,0.1-1.1,0.2s-0.8,0.1-1.1,0.2c-0.2,0-0.6,0.1-0.8,0.1
		s-0.3,0.1-0.6,0.1c-0.1,0-0.1,0-0.2,0c-0.2,0-0.5,0.1-0.7,0.1c1.5-0.3,2.9-0.6,4.4-0.8c0.8-0.1,1.6-0.2,2.4-0.3L229.4,109.8z
		 M229.4,109.8c-0.8,0.1-1.5,0.1-2.2,0.3c-0.3,0.1-0.8,0.1-1.1,0.2s-0.8,0.1-1.1,0.2c-0.2,0-0.6,0.1-0.8,0.1s-0.3,0.1-0.6,0.1
		c-0.1,0-0.1,0-0.2,0c-0.2,0-0.5,0.1-0.7,0.1c1.5-0.3,2.9-0.6,4.4-0.8c0.8-0.1,1.6-0.2,2.4-0.3L229.4,109.8z M229.4,109.8
		c-0.8,0.1-1.5,0.1-2.2,0.3c-0.3,0.1-0.8,0.1-1.1,0.2s-0.8,0.1-1.1,0.2c-0.2,0-0.6,0.1-0.8,0.1s-0.3,0.1-0.6,0.1c-0.1,0-0.1,0-0.2,0
		c-0.2,0-0.5,0.1-0.7,0.1c1.5-0.3,2.9-0.6,4.4-0.8c0.8-0.1,1.6-0.2,2.4-0.3L229.4,109.8z M229.4,109.8c-0.8,0.1-1.5,0.1-2.2,0.3
		c-0.3,0.1-0.8,0.1-1.1,0.2s-0.8,0.1-1.1,0.2c-0.2,0-0.6,0.1-0.8,0.1s-0.3,0.1-0.6,0.1c-0.1,0-0.1,0-0.2,0c-0.2,0-0.5,0.1-0.7,0.1
		c1.5-0.3,2.9-0.6,4.4-0.8c0.8-0.1,1.6-0.2,2.4-0.3L229.4,109.8z M229.4,109.8c-0.8,0.1-1.5,0.1-2.2,0.3c-0.3,0.1-0.8,0.1-1.1,0.2
		s-0.8,0.1-1.1,0.2c-0.2,0-0.6,0.1-0.8,0.1s-0.3,0.1-0.6,0.1c-0.1,0-0.1,0-0.2,0c-0.2,0-0.5,0.1-0.7,0.1c1.5-0.3,2.9-0.6,4.4-0.8
		c0.8-0.1,1.6-0.2,2.4-0.3L229.4,109.8z M224.2,110.6c-0.2,0-0.3,0.1-0.6,0.1c-0.1,0-0.1,0-0.2,0c-0.2,0-0.5,0.1-0.7,0.1
		c0.8-0.1,1.5-0.3,2.3-0.5C224.7,110.4,224.4,110.4,224.2,110.6z M227.2,110c-0.3,0.1-0.8,0.1-1.1,0.2
		C226.4,110.1,226.9,110.1,227.2,110c0.7-0.1,1.5-0.2,2.2-0.3C228.6,109.8,227.9,109.9,227.2,110z"/>
	<path class="st0" d="M194.3,334.6"/>
	<g>
		<path class="st0" d="M147.4,198.6v0.2C147.4,198.7,147.4,198.6,147.4,198.6L147.4,198.6z M151.2,177.6L151.2,177.6
			c-0.1,0.3-0.2,0.6-0.2,0.8C151.1,178.2,151.2,178,151.2,177.6L151.2,177.6z"/>
	</g>
	<g>
		<path class="st0" d="M340.8,140.3c0.2-0.2,0.3-0.5,0.6-0.7c0,0,0-0.1,0.1-0.1C341.3,139.9,341.1,140.1,340.8,140.3z"/>
	</g>
	<g>
		<path class="st0" d="M175.6,203.8c1.8-2,11.1-7.2,16.5-7.2h37l-2.2-8.7h-34.8c-10.6,0-22.8,9.9-23.1,10.2L175.6,203.8z"/>
	</g>
	<path class="st0" d="M350.6,109.5v-3.4c0,0-5.8,2.8-12.8,2.8c-22.3-25.7-54.5-40.7-88.7-40.8c-65-0.3-118,52.3-118.4,117.2
		l-0.1,21.3c0,2.6,0.1,5.1,0.3,7.7v0.1c-0.2,1.1-0.3,2.3-0.3,3.6l-0.1,29.3c0,8.3,6.6,15,15,15.1c0.7,0,1.2-0.1,1.9-0.2
		c2.3,24.8,13.3,46.9,29.8,63.1c3.2,3.2,6.6,6.1,10.2,8.8l-0.1,31.4c0,0.6,0,1.1,0,1.7l0.7,6.9c4,29.4,29.2,52.2,59.8,52.4
		c0.9,0,1.9,0,2.8,0s1.7-0.1,2.5-0.1c0.2,0,0.3,0,0.5-0.1c0.8,0,1.5-0.1,2.2-0.2c0.2,0,0.5,0,0.8-0.1l0.7-0.1
		c0.8-0.1,1.6-0.2,2.3-0.5c0.8-0.1,1.6-0.3,2.3-0.5c0.8-0.1,1.5-0.3,2.3-0.6c0.5-0.1,0.9-0.2,1.2-0.3c0.6-0.1,1-0.3,1.5-0.5
		c0.9-0.2,1.7-0.6,2.6-0.9c0.7-0.2,1.4-0.6,2-0.8c0.2-0.1,0.5-0.1,0.7-0.2c0.7-0.2,1.2-0.6,1.9-0.8c0.2-0.1,0.3-0.1,0.6-0.2
		c0.8-0.3,1.5-0.8,2.3-1.1c0.7-0.3,1.2-0.8,1.9-1.1c0.7-0.3,1.2-0.8,1.9-1.1c0.7-0.5,1.2-0.8,1.9-1.2c0.8-0.5,1.5-1,2.3-1.6
		c0.6-0.5,1-0.8,1.6-1.2c0.6-0.5,1-0.8,1.5-1.2c0.7-0.6,1.2-1.1,1.9-1.7c0.7-0.7,1.4-1.2,1.9-1.9c0.7-0.7,1.2-1.4,1.8-2
		c0.6-0.6,1-1.2,1.6-1.8c0.2-0.2,0.3-0.5,0.6-0.7c0.3-0.2,0.3-0.5,0.6-0.8c0.1-0.1,0.2-0.3,0.3-0.5c0.1-0.1,0.1-0.1,0.2-0.2
		c0.6-0.7,1-1.4,1.5-2c0.2-0.3,0.5-0.7,0.7-1c0.5-0.6,0.8-1.1,1.1-1.8c0.6-0.8,1-1.7,1.5-2.5c0.1-0.1,0.1-0.2,0.2-0.5v-0.1
		c0.5-0.8,0.8-1.6,1.2-2.4c0.3-0.6,0.6-1.1,0.8-1.8c0.3-0.7,0.6-1.5,0.9-2.2c0.2-0.6,0.5-1.1,0.7-1.8c0.2-0.7,0.5-1.4,0.7-2
		c0.3-0.9,0.6-1.8,0.8-2.7c0-0.1,0.1-0.2,0.1-0.3c0.2-1,0.5-1.9,0.7-2.9s0.5-2.2,0.6-3.2l0.8-7c0-0.6,0-1.1,0-1.7l0.1-31.4
		c3.6-2.6,7-5.6,10.2-8.7c16.8-16.1,28-38.1,30.5-62.9c0.6,0.2,1.2,0.2,1.9,0.2c8.3,0,15.1-6.6,15.1-14.8l0.1-29.3
		c0-1.2-0.1-2.6-0.3-3.7v-0.1c0.2-2.5,0.3-5,0.3-7.5l0.1-21.3c0.1-22.1-5.9-43.5-17.3-62.1c1-3.7,1.6-7.6,1.6-11.6L350.6,109.5
		 M359.3,248.5c0,4.5-3.7,8.2-8.3,8.2c-0.6,0-0.9-0.2-1.1-0.7c-0.1-0.2-0.2-0.5-0.2-0.7l0.2-48.6c4.4,1.2,7.9,4.8,9.1,9.2l0,0
		c0.3,1,0.5,2.2,0.5,3.3L359.3,248.5z M359.5,204.3c-2.6-2.4-5.9-4-9.5-4.6v-0.3v-0.2c-1.9-25.8-19.8-37.6-35.4-43
		c9.1-1.7,17.3-6.1,23.9-12.9c3.1-3.2,5.7-6.8,7.6-10.8c9.1,16.5,13.8,35,13.7,54L359.5,204.3z M343.3,116.3c0,0.2,0,0.6-0.1,0.8
		c0,0.1,0,0.3,0,0.5c0,0.1,0,0.3-0.1,0.5c-0.2,1.1-0.3,2.2-0.7,3.3c-0.2,0.8-0.5,1.6-0.7,2.4c-0.8,2.7-2,5.4-3.5,7.9
		c-0.3,0.6-0.8,1.2-1.1,1.8c-0.6,0.8-1.1,1.6-1.8,2.5c-0.1,0.1-0.2,0.2-0.2,0.3c-0.7,0.8-1.4,1.6-2,2.4c-0.3,0.5-0.8,0.8-1.1,1.1
		c-0.1,0.1-0.1,0.1-0.2,0.2c-0.9,0.9-1.9,1.7-2.9,2.5s-2,1.5-3.1,2.2l0,0c-2.2,1.4-4.4,2.4-6.8,3.3c-0.6,0.2-1.1,0.5-1.8,0.6
		c-1.2,0.3-2.4,0.7-3.6,0.9c-2.5,0.5-5,0.7-7.6,0.7l-16.2-0.1l-45.1-0.2l-36.8-0.2c0,0-0.1,0-0.2,0l0,0l0,0
		c-0.6,0-14.5,0.8-28.9,7.5c-3.4,1.6-6.6,3.3-9.4,5.2c-0.7,0.5-1.4,1-2,1.5c-0.8,0.6-1.6,1.1-2.3,1.8c-0.5,0.3-0.8,0.7-1.1,1
		c-0.7,0.6-1.2,1.1-1.9,1.7c13-29.1,40.8-50.1,72.6-52.4l0,0l0,0c2.2-0.1,4.3-0.2,6.5-0.2c0,0,90.2,0.5,94.4,0.5s8-1.2,8-1.2
		L343.3,116.3z M146.8,254.3c0,0.2-0.1,0.5-0.2,0.7c-0.2,0.3-0.7,0.7-1.1,0.7c-4.5,0-8.2-3.7-8.2-8.2l0.1-29.3
		c0-1.1,0.1-2.3,0.5-3.3l0,0c1.1-4.4,4.6-7.9,9.2-9.2L146.8,254.3z M137.4,203.3l0.1-17.9c0.3-61.3,50.3-110.8,111.6-110.4
		c6,0,11.8,0.6,17.6,1.5h0.1c4.4,0.7,8.8,1.7,13.1,3.1c1.5,0.5,2.8,0.9,4.2,1.4c16.9,5.7,32.3,15.4,44.9,28.7l-88.2-0.5
		c-1.6,0-3.1,0-4.6,0.1c-1,0-2,0.1-3.1,0.2c-0.5,0-0.9,0-1.4,0.1c-0.1,0-0.1,0-0.2,0c-0.6,0.1-1.1,0.1-1.7,0.2l0,0
		c-0.1,0-0.1,0-0.2,0s-0.2,0-0.2,0h-0.2c-0.2,0-0.3,0.1-0.6,0.1c-0.6,0.1-1.1,0.1-1.6,0.2c-0.1,0-0.3,0.1-0.5,0.1
		c-1,0.1-1.9,0.3-2.9,0.6c-0.3,0.1-0.7,0.1-1,0.2c-0.2,0-0.6,0.1-0.8,0.1c-0.1,0-0.2,0-0.2,0c-1.1,0.2-2.3,0.5-3.3,0.8
		c-1.5,0.3-2.8,0.8-4.2,1.2c-0.1,0-0.2,0.1-0.3,0.1c-1,0.3-1.9,0.7-2.9,1c-0.2,0.1-0.5,0.1-0.6,0.2c-0.5,0.1-0.8,0.3-1.2,0.5l0,0
		c-0.7,0.2-1.2,0.5-1.9,0.8c-0.2,0.1-0.6,0.2-0.9,0.3s-0.6,0.2-0.9,0.3c-0.6,0.2-1.1,0.5-1.7,0.8c-0.1,0-0.2,0.1-0.2,0.1
		c-0.1,0-0.2,0.1-0.3,0.1c-0.8,0.3-1.6,0.7-2.3,1.1l0,0c0,0,0,0-0.1,0c0,0-0.1,0-0.1,0.1c-1,0.5-2,1-3.1,1.6s-2.3,1.2-3.3,1.9
		c0,0,0,0-0.1,0l-0.1,0.1c-0.1,0.1-0.2,0.1-0.2,0.1c-0.2,0.1-0.5,0.2-0.7,0.5c-0.9,0.6-1.9,1.2-2.8,1.8c-0.1,0.1-0.2,0.2-0.5,0.2
		c-0.9,0.7-1.8,1.2-2.6,1.9c-0.2,0.1-0.3,0.2-0.6,0.5c-0.5,0.3-0.9,0.7-1.5,1c-0.7,0.6-1.4,1.1-2,1.7c-0.5,0.5-1,0.8-1.5,1.2
		c-0.1,0.1-0.2,0.2-0.3,0.3c-0.2,0.2-0.6,0.5-0.8,0.7l-0.1,0.1c-0.7,0.5-1.2,1.1-1.9,1.7c-0.7,0.6-1.4,1.2-1.9,1.8l-0.3,0.3
		c-0.7,0.7-1.4,1.4-1.9,2c-0.2,0.1-0.3,0.3-0.6,0.6c-0.6,0.5-1,1-1.5,1.6c-0.7,0.7-1.2,1.4-1.9,2.2c-0.2,0.3-0.6,0.7-0.8,1
		c-0.6,0.8-1.2,1.5-1.8,2.3c-0.1,0.1-0.2,0.2-0.2,0.3c-0.1,0.1-0.1,0.1-0.2,0.2c-0.2,0.2-0.5,0.6-0.7,0.9c-0.5,0.6-0.8,1.1-1.2,1.7
		c-0.1,0.1-0.2,0.2-0.2,0.5c0,0-0.1,0-0.1,0.1c-0.5,0.7-0.9,1.2-1.2,1.9c-0.3,0.5-0.7,1-1,1.6c-0.2,0.2-0.5,0.6-0.6,0.9
		c-0.3,0.5-0.6,1-0.9,1.5c-0.2,0.3-0.5,0.8-0.7,1.1c-0.1,0.1-0.2,0.3-0.3,0.5c-0.1,0.1-0.1,0.2-0.2,0.3l0,0l0,0
		c-0.1,0.1-0.1,0.1-0.2,0.2l0,0c-0.2,0.3-0.3,0.7-0.6,1c-0.1,0.2-0.2,0.5-0.3,0.7c0,0.1-0.1,0.1-0.1,0.2c-0.1,0.1-0.2,0.3-0.2,0.5
		c0,0.1-0.1,0.2-0.1,0.3c-0.1,0.2-0.2,0.5-0.3,0.7s-0.2,0.5-0.3,0.7c-0.2,0.5-0.6,1-0.8,1.6c-0.1,0.2-0.2,0.6-0.3,0.8
		s-0.2,0.5-0.3,0.7c-0.2,0.5-0.3,0.8-0.6,1.1c0,0.1-0.1,0.2-0.2,0.3c0,0.1-0.1,0.1-0.1,0.2c-0.1,0.2-0.2,0.5-0.2,0.6
		c-0.1,0.2-0.2,0.5-0.3,0.8c-0.1,0.2-0.2,0.5-0.2,0.7c-0.1,0.2-0.2,0.5-0.2,0.7c-0.2,0.5-0.3,0.8-0.6,1.2c0,0.1,0,0.1-0.1,0.2
		c-0.2,0.5-0.3,0.9-0.6,1.4c0,0.1,0,0.1-0.1,0.1c0,0.1,0,0.1-0.1,0.2v0.1l0,0l0,0c0,0.1-0.1,0.2-0.1,0.3c-0.1,0.1-0.1,0.2-0.2,0.3
		c0,0.1-0.1,0.1-0.1,0.2c0,0.1-0.1,0.2-0.1,0.3s0,0.1-0.1,0.2v0.1c-0.1,0.3-0.2,0.8-0.3,1.1c-0.1,0.1-0.1,0.3-0.2,0.5l0,0
		c0,0,0,0,0,0.1c0,0,0,0,0,0.1s0,0.1,0,0.1v0.1c0,0.1-0.1,0.1-0.1,0.2c0,0.1-0.1,0.2-0.1,0.3s-0.1,0.1-0.1,0.2v0.1
		c0,0.1,0,0.1-0.1,0.2v0.1v0.1c0,0,0,0,0,0.1l0,0v0.1c-0.1,0.2-0.1,0.5-0.2,0.8c0,0,0,0,0,0.1c-0.1,0.6-0.3,1.1-0.5,1.7
		c0,0.1-0.1,0.1-0.1,0.2c0,0.1,0,0.1,0,0.1v0.1c-0.1,0.5-0.2,0.8-0.3,1.1c-0.1,0.2-0.1,0.5-0.2,0.7c0,0,0,0,0,0.1s-0.1,0.1-0.1,0.2
		c0,0,0,0,0,0.1c-0.1,0.5-0.2,1-0.3,1.5c-0.1,0.3-0.2,0.8-0.2,1.1c0,0.1,0,0.2-0.1,0.3c0,0.1-0.1,0.3-0.1,0.5
		c-0.2,0.9-0.3,1.7-0.5,2.6l0,0v0.1c0,0.1,0,0.2-0.1,0.3l-0.1,0.7c-0.1,0.6-0.2,1.1-0.2,1.7c0,0.1,0,0.2-0.1,0.5
		c0,0.5-0.1,0.8-0.1,1.2c0,0.2,0,0.3-0.1,0.5c0,0.2-0.1,0.6-0.1,0.8c-0.1,1.1-0.2,2.4-0.3,3.6l0,0c0,0.1,0,0.1,0,0.2
		C143.5,199.4,140.1,200.9,137.4,203.3z M301.4,366c0,0.6,0,1.1,0,1.7c-0.1,2.3-0.3,4.5-0.7,6.8c-0.7,4.1-1.8,7.9-3.3,11.7
		c-0.6,1.4-1.2,2.8-1.9,4.2c-1.1,2.2-2.4,4.3-3.9,6.2c-0.5,0.7-0.9,1.2-1.4,1.9c-2.4,3.2-5.2,6-8.2,8.5c-0.6,0.5-1.2,1-1.8,1.5
		c-1.7,1.4-3.5,2.5-5.4,3.6c-0.7,0.5-1.4,0.8-2,1.1c-1.6,0.8-3.2,1.6-4.9,2.3l-1.8,0.7c-0.8,0.3-1.6,0.6-2.5,0.8
		c-0.7,0.2-1.4,0.5-2,0.6c-0.9,0.2-1.7,0.5-2.6,0.7c-1.5,0.3-2.8,0.6-4.3,0.8c-0.2,0-0.6,0.1-0.8,0.1c-1.4,0.1-2.7,0.3-4.1,0.3
		c-0.8,0-1.7,0.1-2.5,0c-26.8-0.1-48.9-19.9-52.9-45.5c-0.3-2.3-0.6-4.5-0.6-6.8c0-0.6,0-1.1,0-1.7l0.1-26.7c3.3,2,6.7,4,10.2,5.6
		c13.1,6.3,28,9.9,43.6,10c1.5,0,2.8,0,4.2-0.1c3.2-0.1,6.2-0.3,9.3-0.8c1.2-0.1,2.5-0.3,3.7-0.6c0,0,0,0,0.1,0
		c0.8-0.1,1.5-0.2,2.3-0.5c0.3-0.1,0.7-0.1,1-0.2c0.8-0.1,1.5-0.3,2.3-0.5h0.1c1.2-0.2,2.4-0.6,3.5-0.8c2.8-0.7,5.7-1.6,8.4-2.6
		c0.1,0,0.2-0.1,0.2-0.1c1.2-0.5,2.4-0.9,3.6-1.4c0.2-0.1,0.5-0.1,0.7-0.2c1.5-0.6,2.9-1.2,4.4-1.9c3.5-1.7,6.9-3.5,10.2-5.4
		L301.4,366z M225.3,263l20.4,12.2c0.7,0.7,1.5,1,2.4,1c0.5,0,0.9-0.1,1.2-0.2c0.5-0.1,0.8-0.5,1.1-0.8l0,0l20.7-12.1l-4.8-4.9
		l-14.6,6.6l0.3-106.7l37.7,0.2c0.1,0,12.8,0.1,25.8,5.4c16.9,6.9,26.2,18.9,27.5,35.7l-0.2,53.8c0,1,0,2.2-0.1,3.3
		c-0.1,2.2-0.2,4.3-0.5,6.5c0,0.1,0,0.1,0,0.2c-0.2,1.6-0.3,3.2-0.7,4.8c-0.2,1.1-0.3,2.4-0.7,3.5c0,0,0,0,0,0.1s0,0.2-0.1,0.3
		c-0.1,0.6-0.2,1.1-0.3,1.7c0,0,0,0,0,0.1c-0.2,1-0.5,1.9-0.7,2.8c0,0.2-0.1,0.5-0.2,0.8c-0.3,1.5-0.8,2.8-1.2,4.3c0,0,0,0,0,0.1
		c-0.5,1.5-1,2.8-1.5,4.3c-0.6,1.4-1,2.7-1.6,4.1c-0.1,0.1-0.1,0.2-0.2,0.3c-0.5,1.1-1,2.3-1.6,3.5c-0.7,1.4-1.4,2.6-2,4
		c-0.3,0.6-0.6,1.1-0.9,1.7c-0.5,0.8-0.8,1.5-1.2,2.2c-0.6,1-1.2,2-1.9,3.1c-0.6,0.8-1.1,1.7-1.7,2.6c-0.2,0.3-0.5,0.7-0.7,1
		c-0.1,0.1-0.2,0.2-0.2,0.3c-0.2,0.3-0.5,0.7-0.7,1s-0.5,0.7-0.7,0.9c-0.6,0.8-1.2,1.5-1.8,2.3c-0.6,0.7-1.1,1.4-1.7,2
		c0,0.1-0.1,0.1-0.1,0.1c-0.2,0.3-0.6,0.6-0.8,0.9c-0.1,0-0.1,0.1-0.1,0.1c-0.8,0.9-1.7,1.8-2.5,2.7c-0.5,0.5-0.9,0.9-1.4,1.4
		c-0.8,0.8-1.7,1.7-2.6,2.4c-0.2,0.2-0.6,0.5-0.8,0.8c-0.9,0.9-1.9,1.7-2.9,2.5c-2.2,1.8-4.4,3.5-6.8,5.1c-1.6,1.1-3.3,2.2-5,3.2
		c-0.9,0.5-1.7,1-2.6,1.5s-1.7,0.9-2.6,1.4c-1.6,0.8-3.3,1.7-5,2.4c-1.2,0.6-2.6,1.1-4,1.7c-0.9,0.3-1.8,0.7-2.6,1
		c-1.1,0.5-2.3,0.8-3.4,1.1c-1,0.3-2.2,0.7-3.2,0.9c-0.1,0-0.2,0-0.2,0.1c-1,0.2-2,0.6-3.2,0.8c-0.8,0.2-1.5,0.3-2.3,0.5
		c-0.9,0.2-1.7,0.3-2.6,0.5c-1.2,0.2-2.4,0.3-3.6,0.6c-0.5,0.1-0.9,0.1-1.5,0.2c-1.1,0.1-2.4,0.2-3.5,0.3c-0.3,0-0.7,0.1-1,0.1
		s-0.7,0.1-1,0.1c-0.1,0-0.2,0-0.2,0c-0.9,0.1-1.8,0.1-2.7,0.1c-1.2,0-2.4,0-3.6,0s-2.4,0-3.6-0.1c-0.9,0-1.9-0.1-2.7-0.1
		c-0.1,0-0.2,0-0.2,0c-0.7,0-1.4-0.1-2.2-0.2c-1.1-0.1-2.4-0.2-3.5-0.3c-0.5-0.1-0.9-0.1-1.5-0.2c-1.2-0.2-2.4-0.3-3.6-0.6
		c-0.8-0.1-1.7-0.3-2.6-0.6c-0.8-0.1-1.5-0.3-2.3-0.6c-1-0.2-2.2-0.6-3.2-0.8c-0.1,0-0.1,0-0.2-0.1c-1-0.3-2.2-0.6-3.2-1
		c-1.1-0.3-2.3-0.7-3.4-1.1c-2.3-0.8-4.4-1.7-6.6-2.7c-1.7-0.8-3.3-1.6-5-2.4c-0.9-0.5-1.8-0.9-2.6-1.4c-0.9-0.5-1.7-1-2.6-1.5
		c-1.7-1-3.4-2-5-3.2c-2.4-1.6-4.6-3.3-6.8-5.2c-1.1-0.9-2.3-1.9-3.4-2.9c-1-0.9-1.9-1.8-2.9-2.8c-0.1-0.1-0.3-0.2-0.5-0.5
		c-0.8-0.8-1.6-1.7-2.4-2.5c-0.1-0.1-0.2-0.2-0.3-0.3c-0.2-0.2-0.6-0.6-0.8-0.9c-0.1-0.1-0.2-0.3-0.3-0.5c-0.5-0.5-0.8-1-1.2-1.5
		c-0.5-0.6-0.8-1-1.2-1.5c-0.1-0.1-0.1-0.2-0.2-0.2c-0.7-0.8-1.2-1.7-1.9-2.5c-0.7-0.9-1.5-1.9-2-2.9c0-0.1-0.1-0.1-0.1-0.2
		c-0.5-0.6-0.8-1.2-1.2-1.8c-0.2-0.3-0.5-0.7-0.7-1c-0.6-0.8-1-1.6-1.5-2.4c-1.2-2-2.4-4.2-3.4-6.5c-0.5-1.1-1-2.2-1.5-3.3
		s-1-2.3-1.4-3.4c-0.5-1.1-0.9-2.3-1.2-3.4v-0.1c-0.3-0.9-0.6-1.7-0.9-2.6c-0.1-0.2-0.1-0.6-0.2-0.8c-0.1-0.3-0.2-0.8-0.3-1.1
		c-0.1-0.2-0.1-0.6-0.2-0.8c-0.1-0.2-0.1-0.6-0.2-0.8c-0.2-0.9-0.5-1.8-0.7-2.7c-0.2-0.9-0.5-1.7-0.6-2.6c-0.1-0.3-0.1-0.8-0.2-1.1
		s-0.1-0.7-0.2-1.1c-0.2-1.2-0.5-2.4-0.6-3.6c-0.1-0.3-0.1-0.6-0.1-0.9c-0.2-1.2-0.3-2.5-0.5-3.7v-0.1c0-0.1,0-0.2,0-0.2
		c-0.2-2.2-0.3-4.3-0.5-6.6c-0.1-1-0.1-2.2,0-3.2l0.2-48.9c0-0.5,0.1-0.9,0.1-1.5h0.1c0.1-1,0.1-2,0.2-2.9
		c2.3-15.3,11.3-26.8,27.1-34.1c13.3-6.1,26.5-7,26.5-7l37.5,0.2l-0.6,106.9l-14.6-6.9L225.3,263z"/>
	<path class="st1" d="M229.6,367.7c0,14,35.2,14.5,35.2,0"/>
	<path class="st0" d="M210.7,294L210.7,294l0.1,1.1C210.7,294.8,210.7,294.4,210.7,294z"/>
	<path class="st0" d="M286.1,294c0,2.8-1.2,5.3-3.3,7.4h-68.9c-1.8-1.8-2.9-3.9-3.1-6.2V294"/>
	<path class="st1" d="M282.9,301.4c-12.5,12.6-56.6,12.6-68.9,0H282.9z"/>
</g>
<path class="st0" d="M115,572.6H27.8V456.3c0-51.3,41.8-93.1,93.1-93.1h66.4v8h-66.4c-46.9,0-85.1,38.2-85.1,85.1v108.3H107v-80.9h8
	V572.6z"/>
<path class="st0" d="M381.8,572.6h87.1V456.3c0-51.3-41.8-93.1-93.1-93.1h-66.4v8h66.4c46.9,0,85.1,38.2,85.1,85.1v108.3h-71.1
	v-80.9h-8V572.6z"/>
<rect x="107" y="572.6" class="st0" width="8" height="94.4"/>
<rect x="40.6" y="572.6" class="st0" width="8" height="94.4"/>
<rect x="381.9" y="572.6" class="st0" width="8" height="94.4"/>
<rect x="446.4" y="572.6" class="st0" width="8" height="94.4"/>
<line class="st2" x1="283.5" y1="235.4" x2="290" y2="235.4"/>
<path class="st0" d="M227.5,235.8H221c0-0.5,0-0.8-0.1-1.2c-0.1-3.3-0.7-6.2-1.8-8.8c-0.8-2-1.9-3.7-3.3-5.3
	c-0.1-0.1-0.3-0.3-0.5-0.5c-1-1-2-1.8-3.2-2.5c-0.5-0.2-0.9-0.5-1.4-0.7s-0.8-0.3-1.2-0.5c-1.5-0.6-3.1-0.8-4.8-0.8
	c-1,0-2,0.1-2.9,0.2c-0.5,0.1-1,0.2-1.5,0.3c-0.6,0.1-1,0.3-1.6,0.6c-0.5,0.2-0.8,0.3-1.2,0.6c-0.5,0.2-0.8,0.5-1.2,0.8
	c-0.1,0.1-0.2,0.1-0.3,0.2c-0.3,0.2-0.7,0.6-1,0.8c-0.2,0.2-0.6,0.5-0.8,0.8c-1.6,1.5-2.8,3.4-3.9,5.7c-1.1,2.7-1.9,6-1.9,10h-6.5
	c0.1-17.6,11.6-26.6,22.9-26.6C216,209.1,227.5,218.3,227.5,235.8z"/>
<path class="st0" d="M315.2,235.8h-6.5c0-3.7-0.6-7.1-1.8-10c-0.8-2-1.9-3.9-3.4-5.3c-0.1-0.1-0.2-0.2-0.3-0.3
	c0-0.1-0.1-0.1-0.1-0.1c-0.3-0.3-0.6-0.6-0.9-0.8c-0.7-0.6-1.5-1.1-2.3-1.6c-0.5-0.2-0.9-0.5-1.4-0.7s-0.9-0.3-1.5-0.6
	c-0.5-0.1-1-0.3-1.5-0.5c-1-0.2-2-0.3-3.1-0.3c-1.6,0-3.2,0.2-4.8,0.8c-0.3,0.1-0.7,0.2-1,0.3c-0.8,0.3-1.6,0.8-2.4,1.2
	c-0.3,0.2-0.6,0.3-0.9,0.7c-0.6,0.3-1,0.8-1.5,1.2c-1.6,1.5-2.9,3.4-3.9,5.8c-1,2.5-1.7,5.4-1.8,8.8c-0.1,0.3-0.1,0.8-0.1,1.2h-6.5
	c0.1-17.6,11.6-26.6,22.9-26.6C303.9,209.1,315.4,218.3,315.2,235.8z"/>
</svg>
