<?xml version="1.0" encoding="utf-8"?>
<!-- Generator: Adobe Illustrator 21.0.2, SVG Export Plug-In . SVG Version: 6.00 Build 0)  -->
<svg version="1.1" id="Layer_1" xmlns="http://www.w3.org/2000/svg" xmlns:xlink="http://www.w3.org/1999/xlink" x="0px" y="0px"
	 viewBox="0 0 500 667" style="enable-background:new 0 0 500 667;" xml:space="preserve">
<style type="text/css">
	.st0{opacity:0.4;fill:#FFFFFF;enable-background:new    ;}
	.st1{fill:#FFFFFF;}
</style>
<path class="st0" d="M137.3,165.9c-8.6-2.9-18.5-2.1-26.5,2.3s-14,12.3-16.1,21.2c-0.5,1.8,0.7,3.6,2.5,4.1c0.2,0.1,0.6,0.1,0.8,0.1
	c1.6,0,2.9-1,3.3-2.6c1.7-7,6.4-13.3,12.9-16.8c6.4-3.5,14.2-4.2,21.1-1.8c1.8,0.6,3.7-0.3,4.3-2.1C140,168.5,139,166.6,137.3,165.9
	z"/>
<path class="st1" d="M181.3,487.2c-0.6-1-1.7-1.7-2.9-1.7h-5.3V-0.7h-6.9V485H72.1V-0.7h-6.6v485.8h-5.7c-0.9,0-1.8,0.5-2.5,1.1
	c-0.3,0.3-7.3,8-7.3,18.5c0,10.5,7,18.2,7.3,18.5c0.7,0.7,1.6,1.1,2.5,1.1H89v27.2c-6.4,2.6-12.7,8.1-12.7,18.3
	c0,15.2-6,32.5-6.1,32.7l0.2,0.1c-5.4,10.3-5.6,19.8-5.6,20.1v3.4v20.2h111.5v-20.2v-3.4c0-0.2-0.1-10.1-6-20.6
	c-0.9-2.7-6-18.3-6-32.2c0-9.9-6-15.3-12.3-18v-27.3h26.4c1.2,0,2.4-0.7,2.9-1.7c0.2-0.3,4.6-8.2,4.6-18
	C185.9,495.1,181.5,487.5,181.3,487.2z M83.1,569.6c-0.3-5.4,2.1-9.1,7-11.4c1.5-0.7,2.9-1.2,4.2-1.5c-0.1,1.5-0.3,2.9-0.6,4.4
	c-3.4,0.8-5.9,1.9-6.8,3.3c-0.7,1-0.5,2.5,0.6,3.2c1,0.7,2.4,0.5,3.2-0.6c0.3-0.3,1.1-0.7,2.4-1.1c-0.3,2.6-0.8,5-1.1,7.3
	c-2.5,0.8-4.2,1.7-5,2.8c-0.7,1-0.5,2.5,0.6,3.2c1,0.7,2.4,0.5,3.2-0.6c0.1-0.1,0.2-0.2,0.5-0.3c-0.3,2-0.7,3.7-0.9,4.8
	c-3.7,1.8-7,3.9-9.7,6.3C81.9,583.4,83.1,576.3,83.1,569.6z M169,639.2H71.8v-13.5H169V639.2z M163.9,604.5
	c3.4,5.6,4.6,11.2,5.2,14.5H71.7c0.6-3.6,1.9-9.7,5.6-15.8c8-12.9,22.3-19.3,42.5-19.3c25.5,0,37.8,10.1,43.7,20
	C163.8,604.2,163.9,604.4,163.9,604.5z M137.2,563.7c1.2,0.1,2.4,0.3,3.4,0.6c0.3,2.5,0.7,4.8,1,7.2c-4-0.8-8.9-1.3-14.8-1.5
	c-6.7-0.2-18.6,0.1-27.7,1.6c0.3-2.3,0.7-4.7,1-7.2C109.7,562.9,124.8,562.1,137.2,563.7z M100.8,559.7c0.7-5.6,1.2-11.2,1.2-15
	c0-2.4,7-5.7,18.4-5.9c11.4,0,18.4,3.4,18.4,5.9c0,3.8,0.5,9.2,1.2,14.9c-3.7-0.7-8.1-1-13.2-1.1
	C120.5,558.3,109.7,558.6,100.8,559.7z M137.2,575.2c2,0.2,3.7,0.6,5.2,0.9c0.2,1.6,0.5,3,0.6,4.3c-6.4-2-14.1-3.3-23.2-3.3
	c-8.7,0-16.1,1.1-22.2,3c0.2-1.1,0.5-2.5,0.7-3.9C107.8,574.6,124,573.6,137.2,575.2z M120.4,532.1c-15.8,0-22.9,5-24.7,9.9v-17.9
	h49.5v18.3C143.6,537.3,136.5,532.1,120.4,532.1z M157.3,569.9c0,6.8,1,13.8,2.4,19.7c-2.6-2.6-5.6-4.6-9.2-6.3
	c-0.1-0.9-0.3-2.1-0.7-3.6c0.5,0.5,1,0.8,1.7,0.8c0.3,0,0.8-0.1,1.1-0.3c1.1-0.7,1.5-2,0.8-3c-0.8-1.4-2.4-2.6-4.6-3.6
	c-0.3-2.3-0.8-4.6-1.1-7.1c1.4,0.7,1.7,1.2,1.8,1.5c0.5,0.7,1.1,1.1,1.9,1.1c0.3,0,0.8-0.1,1.1-0.3c1.1-0.7,1.5-2,0.8-3
	c-1-1.8-3.2-3.2-6.4-4.3c-0.2-1.5-0.3-2.9-0.6-4.4c1.1,0.3,2.5,0.8,3.8,1.4C154.9,560.9,157.3,564.6,157.3,569.9z M176.2,517.5H61.3
	v-0.2c-1.6-2.1-4.6-7-4.6-12.7s3-10.7,4.6-12.7h115c1.1,2.4,2.8,7.1,2.8,12.6S177.3,515,176.2,517.5z"/>
<path class="st0" d="M306.4,547.8c0,7,5.6,12.7,12.7,12.7v-25.4C312.1,535.1,306.4,540.8,306.4,547.8z"/>
<path class="st1" d="M259.7,518.4c-1.6-2.1-4.6-7-4.6-12.7s3-10.7,4.6-12.7h114.2l0.1-0.2c1.1,2.4,2.8,7,2.8,12.6
	c0,5.5-1.8,10.5-2.8,13H259.7z M347.5,569.8v-45h29c1.2,0,2.4-0.7,2.9-1.7c0.2-0.3,4.5-8.2,4.5-18s-4.4-17.4-4.6-17.7
	c-0.6-1-1.7-1.7-2.9-1.7h-5.6V0.3h-7.1v485.8l-94.1-0.1V0.3h-6.7v485.8h-4.7c-0.9,0-1.8,0.5-2.5,1.1c-0.3,0.3-7.2,8-7.2,18.5
	c0,10.5,7,18.2,7.2,18.5c0.7,0.7,1.6,1.1,2.5,1.1H284v71.6l6.6,2.4v-74.1l49.5-0.1l0,0V576L347.5,569.8z"/>
<path class="st1" d="M281,595.9"/>
</svg>
