<?xml version="1.0" encoding="utf-8"?>
<!-- Generator: Adobe Illustrator 21.0.2, SVG Export Plug-In . SVG Version: 6.00 Build 0)  -->
<svg version="1.1" id="Layer_1" xmlns="http://www.w3.org/2000/svg" xmlns:xlink="http://www.w3.org/1999/xlink" x="0px" y="0px"
	 viewBox="0 0 249.9 149.3" style="enable-background:new 0 0 249.9 149.3;" xml:space="preserve">
<style type="text/css">
	.st0{fill:#121212;}
	.st1{fill:#FFFFFF;}
</style>
<g id="XMLID_1_">
	<g>
		<path class="st0" d="M29.4,52.4c0.7,0.3,1.5,0.7,2.4,1.1c-3.6,5.7-9.5,10.1-15.9,11.9c0.8-2.3,1.7-4.4,2.8-6.7
			c2.5-5,4.3-7.7,5.4-8.1C24.9,50.3,27,51.4,29.4,52.4z"/>
		<path class="st0" d="M178.7,62.3c-0.3,0.5-0.7,0.8-1,1.2c-3.9-0.3-7.7-0.7-11.4-1.2c0.7-0.9,1.4-1.7,2-2.5
			C171.7,60.8,175.1,61.5,178.7,62.3z"/>
		<path class="st0" d="M161.2,57.9c-0.8,1.1-1.7,2.1-2.4,3.3c-3.4-0.7-6.7-1.4-9.7-2.1c1-1.4,2-2.7,3.3-3.9
			C155.2,56.1,158.2,57,161.2,57.9z"/>
		<path class="st0" d="M145.4,52.7c-1.1,1.5-2.3,2.9-3.3,4.5c-4.6-1.4-8.9-2.9-12.6-4.4c1.5-1.6,2.9-3.2,4.5-4.7
			C137.7,49.6,141.4,51.2,145.4,52.7z"/>
		<path class="st0" d="M127.5,45.1c-1.6,1.6-3,3.1-4.5,4.8c-3.3-1.6-6.1-3-8.3-4.3c-4.4-2.5-9.8-2.5-14.2-0.1
			c-1.6-0.9-5.7-3.6-5.3-8.2c0.5-4.2,3.6-7.2,5.6-8.8C104.5,31.5,113.2,38.1,127.5,45.1z"/>
		<path class="st0" d="M185.7,71.1c41.3,0,36,30.5,36,30.5l-55.5-0.3H11.9c-0.6-5-1.2-16.2,1.8-28.5c10.1-1.5,19.4-7.8,24.5-16.7
			c6.7,2.4,16.1,4.5,30,4.5c22.4,0,30.4-5.7,34.8-8.8c2.4-1.7,5.6-1.8,8.3-0.3c2.1,1.2,4.6,2.6,7.6,3.9c-1,1.8-1.9,3.7-2.3,6
			c-0.3,1.8,0.9,3.6,2.8,3.8c0.2,0,0.3,0,0.6,0c1.6,0,3-1.1,3.4-2.8c0.2-1.5,0.9-2.9,1.8-4.3c4.1,1.7,8.6,3.4,13.6,5
			c-0.7,1.7-1.2,3.6-1,5.6c0.2,1.7,1.7,3,3.4,3c0.1,0,0.2,0,0.3,0c1.8-0.2,3.2-1.9,2.9-3.7c-0.1-0.9,0.3-1.9,0.9-2.9
			c3,0.8,6.3,1.6,9.7,2.3c-0.8,1.6-1.4,3.8-0.6,6.1c0.5,1.5,1.8,2.4,3.3,2.4c0.3,0,0.7,0,1-0.1c1.8-0.6,2.7-2.5,2.1-4.3
			c0-0.1-0.1-0.7,1-2.5c0-0.1,0.1-0.1,0.1-0.2c3.7,0.6,7.7,1.1,11.8,1.5c-0.5,0.9-0.8,1.8-1.1,2.7c-0.7,1.7,0.2,3.7,1.9,4.4
			c0.5,0.1,0.8,0.2,1.2,0.2c1.4,0,2.6-0.8,3.2-2.1c0.7-1.6,1.4-3.2,2.3-4.6C182.7,71,184.1,71,185.7,71.1z"/>
		<rect x="9.3" y="106.8" class="st0" width="220.8" height="16.1"/>
		<path class="st1" d="M236.4,101.7v26.6l-14.7,0.1h-78.9H6.5H3.1V125v-20.2v-3.4h2.1c-0.9-8.1-1.4-27.3,7.6-45.5
			c6.5-13.2,10-13.9,19.6-9.4c1.1,0.5,2.3,1.1,3.8,1.7c0,0,3.2,1.5,6.6,2.4c6.1,1.8,14.1,3.3,25.4,3.3c13.7,0,21.3-2.2,25.9-4.5
			c-3-2.5-6.4-6.7-5.7-12.9c0.4-3.7,2-6.8,3.9-9.2c2.5-3.5,7.4-6.2,7.4-6.2c0.1-0.1,0.3-0.2,0.3-0.2c1.3-0.6,2.9-0.4,3.9,0.6
			c0.1,0.1,9.6,8.9,29.4,18.3c0.7-0.6,1.4-1.2,2.1-1.8c1.4-1.2,3.5-1,4.7,0.5c1,1.4,1,3.2-0.1,4.4c3.3,1.5,7.1,2.9,10.9,4.3
			c0.1-0.1,0.2-0.2,0.3-0.3c1.3-1.3,3.5-1.2,4.7,0.2c0.6,0.5,0.9,1.3,0.9,2.1c3.1,1,6.2,2,9.6,2.9c0.2-0.2,0.5-0.6,0.7-0.8
			c1.2-1.3,3.3-1.5,4.7-0.1c0.8,0.7,1,1.7,1,2.6c3.7,0.9,7.6,1.8,11.5,2.6c0.3-0.2,0.4-0.4,0.6-0.5c1.3-1.1,3.5-1,4.7,0.5
			c0.4,0.4,0.6,0.7,0.7,1.2c3,1.2,1.8,5,1.8,5c21.8,7.7,37.6,11.4,38.8,39v0.1H236.4z M230.1,122.9v-16.1H9.3v16.1H230.1z
			 M221.7,101.6c0,0,5.3-30.5-36-30.5c-1.6-0.1-3-0.1-4.5-0.2c-0.9,1.4-1.6,3-2.3,4.6c-0.6,1.3-1.8,2.1-3.2,2.1
			c-0.4,0-0.7-0.1-1.2-0.2c-1.7-0.7-2.6-2.7-1.9-4.4c0.3-0.9,0.6-1.8,1.1-2.7c-4.1-0.4-8.1-0.9-11.8-1.5c0,0.1-0.1,0.1-0.1,0.2
			c-1.1,1.8-1,2.4-1,2.5c0.6,1.8-0.3,3.7-2.1,4.3c-0.3,0.1-0.7,0.1-1,0.1c-1.5,0-2.8-0.9-3.3-2.4c-0.8-2.3-0.2-4.5,0.6-6.1
			c-3.4-0.7-6.7-1.5-9.7-2.3c-0.6,1-1,2-0.9,2.9c0.3,1.8-1.1,3.5-2.9,3.7c-0.1,0-0.2,0-0.3,0c-1.7,0-3.2-1.3-3.4-3
			c-0.2-2,0.3-3.9,1-5.6c-5-1.6-9.5-3.3-13.6-5c-0.9,1.4-1.6,2.8-1.8,4.3c-0.4,1.7-1.8,2.8-3.4,2.8c-0.3,0-0.4,0-0.6,0
			c-1.9-0.2-3.1-2-2.8-3.8c0.4-2.3,1.3-4.2,2.3-6c-3-1.3-5.5-2.7-7.6-3.9c-2.7-1.5-5.9-1.4-8.3,0.3c-4.4,3.1-12.4,8.8-34.8,8.8
			c-13.9,0-23.3-2.1-30-4.5C33.1,65,23.8,71.3,13.7,72.8c-3,12.3-2.4,23.5-1.8,28.5h154.3L221.7,101.6z M186.2,64c0.4,0,0.7,0,1.2,0
			C186.9,64,186.6,63.9,186.2,64C186.2,63.9,186.2,63.9,186.2,64z M177.7,63.5c0.3-0.4,0.7-0.7,1-1.2c-3.6-0.8-7-1.5-10.4-2.5
			c-0.6,0.8-1.3,1.6-2,2.5C169.9,62.8,173.8,63.2,177.7,63.5z M158.8,61.2c0.7-1.2,1.6-2.2,2.4-3.3c-3-0.9-6-1.8-8.8-2.7
			c-1.3,1.2-2.3,2.5-3.3,3.9C152.1,59.8,155.4,60.5,158.8,61.2z M142.2,57.2c1-1.6,2.2-3,3.3-4.5c-4.1-1.5-7.8-3.1-11.4-4.6
			c-1.6,1.5-3,3.1-4.5,4.7C133.2,54.3,137.6,55.8,142.2,57.2z M123,49.9c1.5-1.7,2.9-3.2,4.5-4.8c-14.3-7-23-13.6-26.7-16.6
			c-2,1.6-5.1,4.6-5.6,8.8c-0.4,4.6,3.7,7.3,5.3,8.2c4.4-2.4,9.8-2.4,14.2,0.1C116.9,46.9,119.7,48.3,123,49.9z M31.8,53.5
			c-0.9-0.4-1.7-0.8-2.4-1.1c-2.4-1-4.5-2.1-5.3-1.8c-1.1,0.4-2.9,3.1-5.4,8.1c-1.1,2.3-2,4.4-2.8,6.7
			C22.3,63.6,28.2,59.2,31.8,53.5z"/>
	</g>
</g>
</svg>
